<svg width="17" height="17" viewBox="0 0 17 17" fill="none" xmlns="http://www.w3.org/2000/svg">
<path d="M14.8775 12.3194L14.6818 11.9997C14.2993 11.375 13.8364 10.8021 13.3059 10.297L12.6516 9.67394C12.5894 9.6147 12.5801 9.52066 12.6294 9.45035L13.5229 8.17721C13.6517 7.99362 13.7706 7.80026 13.8763 7.60255L14.6398 6.17401C14.7728 5.92508 14.7657 5.63182 14.6207 5.3896C14.4758 5.14742 14.2206 5.00258 13.9383 5.00228L12.2858 5.00039C12.2854 5.00039 12.2851 5.00039 12.2848 5.00039C11.9386 5.00039 11.625 5.20516 11.4859 5.52221L11.3109 5.92103C10.8643 6.93856 10.2547 7.86633 9.49853 8.67979V5.76821C9.49853 5.34463 9.1539 5 8.73035 5H6.38985C6.00554 5 5.69292 5.31265 5.69292 5.69697C5.69292 5.84373 5.73816 5.98432 5.82371 6.10343L5.98748 6.33157C6.14805 6.55517 6.23291 6.81887 6.23291 7.09419V9.2217C5.94429 8.88649 5.59287 8.43128 5.29537 7.90791C4.83982 7.10642 4.51328 6.17181 4.35919 5.68602C4.22901 5.2757 3.85241 5 3.422 5H1.74827C1.51206 5 1.29483 5.108 1.15212 5.2963C1.00953 5.48464 0.964437 5.72308 1.0285 5.95053L1.34073 7.05867C1.53208 7.73793 1.79513 8.39919 2.12256 9.02411C2.22138 9.21276 2.45442 9.28562 2.64318 9.18676C2.83191 9.0879 2.90469 8.85478 2.80584 8.6661C2.50325 8.0885 2.26014 7.47731 2.08325 6.8495L1.77951 5.77141H3.42204C3.51472 5.77141 3.59584 5.83081 3.62388 5.91925C3.78715 6.4339 4.13428 7.42621 4.62479 8.28907C5.02723 8.99707 5.5155 9.58689 5.8543 9.95701C6.0399 10.1598 6.32548 10.2265 6.58182 10.1269C6.83847 10.0272 7.00432 9.78483 7.00432 9.50956V7.09419C7.00432 6.65645 6.86936 6.23715 6.61414 5.88165L6.53496 5.77141H8.72711V8.86458C8.72711 9.09087 8.84074 9.29896 9.03109 9.42131C9.2214 9.54369 9.45787 9.56062 9.66376 9.46663L9.82279 9.39404C9.89607 9.36064 9.96114 9.314 10.0163 9.25542C10.8534 8.36652 11.5266 7.34895 12.0173 6.23098L12.1923 5.83216C12.2084 5.79544 12.2447 5.77176 12.2848 5.77176H12.2849L13.9375 5.77365C13.9431 5.77365 13.9516 5.77369 13.9589 5.7858C13.9662 5.79795 13.9621 5.80543 13.9595 5.81041L13.196 7.23891C13.105 7.40927 13.0025 7.57586 12.8915 7.73408L11.998 9.00721C11.7276 9.39261 11.7787 9.90795 12.1197 10.2326L12.774 10.8557C13.2559 11.3145 13.6764 11.835 14.0239 12.4025L14.2196 12.7222C14.2243 12.7299 14.2386 12.7533 14.2208 12.7851C14.203 12.8169 14.1755 12.8169 14.1665 12.8169H12.7398C12.5565 12.8169 12.3781 12.7416 12.2503 12.6102L10.8237 11.1433C10.4876 10.7977 10.0609 10.5603 9.58994 10.4569C9.37884 10.4105 9.16092 10.4616 8.99236 10.5972C8.82381 10.7327 8.72715 10.9345 8.72715 11.1508V12.592C8.72715 12.716 8.62625 12.817 8.50217 12.817C7.39666 12.817 6.30423 12.4471 5.42609 11.7755C5.07232 11.5049 4.7349 11.2065 4.42322 10.8886C4.2741 10.7365 4.02991 10.734 3.87775 10.8832C3.72563 11.0323 3.72324 11.2766 3.87235 11.4286C4.20957 11.7726 4.57464 12.0954 4.95742 12.3882C5.96932 13.1622 7.22818 13.5884 8.50213 13.5884C9.05153 13.5884 9.49853 13.1414 9.49853 12.592V11.2284C9.79224 11.3068 10.0579 11.4623 10.2707 11.6812L11.6973 13.148C11.9694 13.4279 12.3494 13.5884 12.7398 13.5884H14.1665C14.4679 13.5884 14.7466 13.4251 14.8938 13.1622C15.041 12.8993 15.0348 12.5764 14.8775 12.3194Z" fill="#ffffff"/>
<path d="M3.60558 10.1437L3.6019 10.1386C3.49501 9.98958 3.28763 9.95535 3.13858 10.0622C2.98956 10.1691 2.95536 10.3765 3.06221 10.5255C3.06234 10.5258 3.06434 10.5285 3.06447 10.5287L3.33574 10.3372L3.0659 10.5307C3.13074 10.6211 3.23264 10.6693 3.33604 10.6693C3.40298 10.6693 3.47061 10.6491 3.52921 10.6071C3.67823 10.5002 3.71243 10.2928 3.60558 10.1437Z" fill="#ffffff"/>
<path d="M14.8086 0H2.19141C0.983045 0 0 0.983045 0 2.19141V14.8086C0 16.017 0.983045 17 2.19141 17H14.8086C16.017 17 17 16.017 17 14.8086V2.19141C17 0.983045 16.017 0 14.8086 0ZM16.3359 14.8086C16.3359 15.6508 15.6508 16.3359 14.8086 16.3359H2.19141C1.34924 16.3359 0.664062 15.6508 0.664062 14.8086V2.19141C0.664062 1.34924 1.34924 0.664062 2.19141 0.664062H14.8086C15.6508 0.664062 16.3359 1.34924 16.3359 2.19141V14.8086Z" fill="#ffffff"/>
</svg>
